<svg width="37" height="37" viewBox="0 0 37 37" fill="none" xmlns="http://www.w3.org/2000/svg">
<rect width="36.0467" height="36.0706" rx="12" fill="#5048E5" fill-opacity="0.1"/>
<path d="M11.6 15.9956L13.55 16.8206C13.7833 16.3539 14.025 15.9039 14.275 15.4706C14.525 15.0372 14.8 14.6039 15.1 14.1706L13.7 13.8956V13.8956V13.8956L11.6 15.9956V15.9956M15.15 18.0706L18 20.8956C18.7 20.6289 19.45 20.2206 20.25 19.6706C21.05 19.1206 21.8 18.4956 22.5 17.7956C23.6667 16.6289 24.5792 15.3331 25.2375 13.9081C25.8958 12.4831 26.1833 11.1706 26.1 9.97056C24.9 9.88723 23.5833 10.1747 22.15 10.8331C20.7167 11.4914 19.4167 12.4039 18.25 13.5706C17.55 14.2706 16.925 15.0206 16.375 15.8206C15.825 16.6206 15.4167 17.3706 15.15 18.0706V18.0706M19.6 16.4456C19.2167 16.0622 19.025 15.5914 19.025 15.0331C19.025 14.4747 19.2167 14.0039 19.6 13.6206C19.9833 13.2372 20.4583 13.0456 21.025 13.0456C21.5917 13.0456 22.0667 13.2372 22.45 13.6206C22.8333 14.0039 23.025 14.4747 23.025 15.0331C23.025 15.5914 22.8333 16.0622 22.45 16.4456C22.0667 16.8289 21.5917 17.0206 21.025 17.0206C20.4583 17.0206 19.9833 16.8289 19.6 16.4456V16.4456M20.075 24.4706L22.175 22.3706V22.3706V22.3706L21.9 20.9706C21.4667 21.2706 21.0333 21.5414 20.6 21.7831C20.1667 22.0247 19.7167 22.2622 19.25 22.4956L20.075 24.4706V24.4706M27.9 8.14556C28.2167 10.1622 28.0208 12.1247 27.3125 14.0331C26.6042 15.9414 25.3833 17.7622 23.65 19.4956V19.4956V19.4956L24.15 21.9706C24.2167 22.3039 24.2 22.6289 24.1 22.9456C24 23.2622 23.8333 23.5372 23.6 23.7706L19.4 27.9706L17.3 23.0456L13.025 18.7706L8.1 16.6706L12.275 12.4706C12.5083 12.2372 12.7875 12.0706 13.1125 11.9706C13.4375 11.8706 13.7667 11.8539 14.1 11.9206L16.575 12.4206V12.4206V12.4206C18.3083 10.6872 20.125 9.46223 22.025 8.74556C23.925 8.0289 25.8833 7.8289 27.9 8.14556V8.14556M9.875 21.9456C10.4583 21.3622 11.1708 21.0664 12.0125 21.0581C12.8542 21.0497 13.5667 21.3372 14.15 21.9206C14.7333 22.5039 15.0208 23.2164 15.0125 24.0581C15.0042 24.8997 14.7083 25.6122 14.125 26.1956C13.7083 26.6122 13.0125 26.9706 12.0375 27.2706C11.0625 27.5706 9.71667 27.8372 8 28.0706C8.23333 26.3539 8.5 25.0081 8.8 24.0331C9.1 23.0581 9.45833 22.3622 9.875 21.9456V21.9456M11.3 23.3456C11.1333 23.5122 10.9667 23.8164 10.8 24.2581C10.6333 24.6997 10.5167 25.1456 10.45 25.5956C10.9 25.5289 11.3458 25.4164 11.7875 25.2581C12.2292 25.0997 12.5333 24.9372 12.7 24.7706C12.9 24.5706 13.0083 24.3289 13.025 24.0456C13.0417 23.7622 12.95 23.5206 12.75 23.3206C12.55 23.1206 12.3083 23.0247 12.025 23.0331C11.7417 23.0414 11.5 23.1456 11.3 23.3456V23.3456" fill="#5048E5"/>
</svg>
